<?xml version="1.0" encoding="iso-8859-1"?>
<!-- Generator: Adobe Illustrator 19.0.0, SVG Export Plug-In . SVG Version: 6.00 Build 0)  -->
<svg version="1.1" id="Layer_1" xmlns="http://www.w3.org/2000/svg" xmlns:xlink="http://www.w3.org/1999/xlink" x="0px" y="0px"
	 viewBox="0 0 506 506" style="enable-background:new 0 0 506 506;" xml:space="preserve">
<circle style="fill:#324A5E;" cx="253" cy="253" r="253"/>
<rect x="94.9" y="262.2" style="fill:#54C0EB;" width="149" height="149"/>
<rect x="262.2" y="262.2" style="fill:#ACB3BA;" width="149" height="149"/>
<rect x="262.2" y="94.9" style="fill:#2FB5A0;" width="149" height="149"/>
<rect x="95" y="94.9" style="fill:#F9B54C;" width="149" height="149"/>
<rect x="111.2" y="111.1" style="fill:#FFD05B;" width="116.5" height="116.5"/>
<rect x="278.4" y="111.1" style="fill:#4CDBC4;" width="116.5" height="116.5"/>
<rect x="111.1" y="278.4" style="fill:#84DBFF;" width="116.5" height="116.5"/>
<rect x="278.4" y="278.4" style="fill:#E6E9EE;" width="116.5" height="116.5"/>
<polygon style="fill:#324A5E;" points="201.8,149.2 189.7,137 169.5,157.2 149.3,137 137.1,149.2 157.3,169.4 137.1,189.6 
	149.3,201.7 169.5,181.5 189.7,201.7 201.8,189.6 181.6,169.4 "/>
<rect x="132.2" y="328.1" style="fill:#FFFFFF;" width="74.3" height="17.1"/>
<g>
	<rect x="299.5" y="346.8" style="fill:#324A5E;" width="74.3" height="17.1"/>
	<rect x="299.5" y="309.3" style="fill:#324A5E;" width="74.3" height="17.1"/>
</g>
<polygon style="fill:#FFFFFF;" points="373.8,160.8 345.2,160.8 345.2,132.2 328.1,132.2 328.1,160.8 299.5,160.8 299.5,177.9 
	328.1,177.9 328.1,206.5 345.2,206.5 345.2,177.9 373.8,177.9 "/>
<g>
</g>
<g>
</g>
<g>
</g>
<g>
</g>
<g>
</g>
<g>
</g>
<g>
</g>
<g>
</g>
<g>
</g>
<g>
</g>
<g>
</g>
<g>
</g>
<g>
</g>
<g>
</g>
<g>
</g>
</svg>
