<?xml version="1.0" encoding="iso-8859-1"?>
<!-- Generator: Adobe Illustrator 19.0.0, SVG Export Plug-In . SVG Version: 6.00 Build 0)  -->
<svg version="1.1" id="Layer_1" xmlns="http://www.w3.org/2000/svg" xmlns:xlink="http://www.w3.org/1999/xlink" x="0px" y="0px"
	 viewBox="0 0 504 504" style="enable-background:new 0 0 504 504;" xml:space="preserve">
<circle style="fill:#324A5E;" cx="252" cy="252" r="252"/>
<path style="fill:#E6E9EE;" d="M359.4,409.5H144.6c-1.4,0-2.5-1.1-2.5-2.5V97c0-1.4,1.1-2.5,2.5-2.5h214.8c1.4,0,2.5,1.1,2.5,2.5
	v310C361.9,408.4,360.8,409.5,359.4,409.5z"/>
<rect x="142.1" y="134.2" style="fill:#54C0EB;" width="219.7" height="213.9"/>
<g>
	<path style="fill:#324A5E;" d="M283.7,124.9h-63.3c-1.1,0-2.1-0.9-2.1-2.1v-12.1c0-1.1,0.9-2.1,2.1-2.1h63.3c1.1,0,2.1,0.9,2.1,2.1
		v12.1C285.7,124,284.8,124.9,283.7,124.9z"/>
	<circle style="fill:#324A5E;" cx="252" cy="381.3" r="20.7"/>
</g>
<path style="fill:#2B3B4E;" d="M252,386.2c-2.7,0-4.9-2.2-4.9-4.9s2.2-4.9,4.9-4.9c2.7,0,4.9,2.2,4.9,4.9S254.7,386.2,252,386.2z"/>
<circle style="fill:#FFFFFF;" cx="252" cy="241.2" r="61.2"/>
<g>
	<polygon style="fill:#F1543F;" points="223.1,267.5 195.5,241.2 223.1,214.9 231.2,223.4 212.6,241.2 231.2,258.9 	"/>
	<polygon style="fill:#F1543F;" points="280.9,267.5 272.8,258.9 291.4,241.2 272.8,223.4 280.9,214.9 308.5,241.2 	"/>
	
		<rect x="246.088" y="195.706" transform="matrix(-0.9299 -0.3678 0.3678 -0.9299 397.6157 558.0892)" style="fill:#F1543F;" width="11.8" height="90.9"/>
</g>
<g>
</g>
<g>
</g>
<g>
</g>
<g>
</g>
<g>
</g>
<g>
</g>
<g>
</g>
<g>
</g>
<g>
</g>
<g>
</g>
<g>
</g>
<g>
</g>
<g>
</g>
<g>
</g>
<g>
</g>
</svg>
