<?xml version="1.0" encoding="iso-8859-1"?>
<!-- Generator: Adobe Illustrator 19.0.0, SVG Export Plug-In . SVG Version: 6.00 Build 0)  -->
<svg version="1.1" id="Layer_1" xmlns="http://www.w3.org/2000/svg" xmlns:xlink="http://www.w3.org/1999/xlink" x="0px" y="0px"
	 viewBox="0 0 508 508" style="enable-background:new 0 0 508 508;" xml:space="preserve">
<circle style="fill:#324A5E;" cx="254" cy="254" r="254"/>
<path style="fill:#CED5E0;" d="M298.4,381.6c-29.6,3.6-59.2,3.6-88.4,0c5.2-20,5.2-27.6,0-47.6c29.6-3.6,59.2-3.6,88.4,0
	C293.2,354,293.2,361.6,298.4,381.6z"/>
<g>
	<path style="fill:#E6E9EE;" d="M326.8,402.8H181.2l0,0c0-16,12.8-28.8,28.8-28.8h88C314,374,326.8,386.8,326.8,402.8L326.8,402.8z"
		/>
	<path style="fill:#E6E9EE;" d="M392,114.8H116c-4.4,0-8,3.6-8,8v206.8c0,4.4,3.6,8,8,8h276.4c4.4,0,8-3.6,8-8V122.8
		C400,118.4,396.4,114.8,392,114.8z"/>
</g>
<rect x="130" y="136.8" style="fill:#84DBFF;" width="248.4" height="152.4"/>
<circle style="fill:#FF7058;" cx="254" cy="312.4" r="9.6"/>
<g>
</g>
<g>
</g>
<g>
</g>
<g>
</g>
<g>
</g>
<g>
</g>
<g>
</g>
<g>
</g>
<g>
</g>
<g>
</g>
<g>
</g>
<g>
</g>
<g>
</g>
<g>
</g>
<g>
</g>
</svg>
