<svg id="Capa_1" enable-background="new 0 0 512 512" height="512" viewBox="0 0 512 512" width="512" xmlns="http://www.w3.org/2000/svg"><g><path d="m256 22c-135.31 0-245 109.69-245 245 0 75.838 34.463 143.623 88.576 188.563l1-.47v-13.163c0-21.505 17.495-39 39-39h232.848c21.505 0 39 17.495 39 39v13.163l1 .47c54.113-44.94 88.576-112.725 88.576-188.563 0-135.31-109.69-245-245-245z" fill="#26a6fe"/><g><g><path d="m178 382.523h156v20.407h-156z" fill="#fff"/></g><g><path d="m178 382.523h40v20.407h-40z" fill="#eaf6ff"/></g><g><path d="m372.424 401.93h-232.848c-22.091 0-40 17.909-40 40v13.633c42.435 35.241 96.953 56.437 156.424 56.437s113.989-21.196 156.424-56.437v-13.633c0-22.092-17.909-40-40-40z" fill="#d8ecfe"/></g><path d="m141.153 441.93c0-22.091 17.909-40 40-40h-41.576c-22.091 0-40 17.909-40 40v13.633c12.82 10.646 26.748 20 41.576 27.886z" fill="#c4e2ff"/><g><path d="m259.786 479.437 28.618-33.171c2.795-3.24.493-8.266-3.786-8.266h-57.235c-4.279 0-6.581 5.026-3.786 8.266l28.618 33.171c1.994 2.312 5.576 2.312 7.571 0z" fill="#fff"/></g><path d="m244.224 446.266c-2.795-3.24-.494-8.266 3.786-8.266h-20.627c-4.279 0-6.581 5.026-3.786 8.266l28.617 33.171c1.995 2.312 5.577 2.312 7.572 0l6.528-7.567z" fill="#eaf6ff"/><g><g><path d="m97.902 336.729v-43.404c0-7.981.794-15.779 2.296-23.326h-7.306c-14.768 0-26.739 11.971-26.739 26.739v22.728c0 14.768 11.971 26.739 26.739 26.739h6.003c-.647-3.058-.993-6.227-.993-9.476z" fill="#fff"/></g><g><path d="m419.108 270h-7.306c1.502 7.546 2.296 15.345 2.296 23.326v43.404c0 3.249-.346 6.418-.992 9.477h6.003c14.768 0 26.739-11.971 26.739-26.739v-22.728c-.001-14.769-11.972-26.74-26.74-26.74z" fill="#fff"/></g></g><g><path d="m368.304 383.523h-224.608c-25.843 0-46.793-20.95-46.793-46.793v-43.404c0-66.454 53.871-120.326 120.325-120.326h77.543c66.454 0 120.326 53.872 120.326 120.326v43.404c0 25.843-20.95 46.793-46.793 46.793z" fill="#d8ecfe"/></g><path d="m149 336.729v-15.555c-7.539-10.63-11.989-23.597-11.989-37.592 0-23.534 12.544-44.192 31.296-55.644 21.445-33.062 58.675-54.938 101.019-54.938h-52.098c-66.454 0-120.326 53.872-120.326 120.326v43.404c0 25.843 20.95 46.793 46.793 46.793h52.098c-25.843 0-46.793-20.95-46.793-46.794z" fill="#c4e2ff"/><g><path d="m202.164 348.736c-35.925 0-65.153-29.228-65.153-65.153s29.228-65.153 65.153-65.153h107.672c35.925 0 65.153 29.228 65.153 65.153s-29.228 65.153-65.153 65.153z" fill="#116d9a"/></g><g><path d="m179 283.583c0-35.925 29.228-65.153 65.153-65.153h-41.989c-35.925 0-65.153 29.228-65.153 65.153s29.228 65.153 65.153 65.153h41.989c-35.925 0-65.153-29.228-65.153-65.153z" fill="#005e89"/></g><g><path d="m290.761 315.001h-69.522c-3.692 0-6.685-2.993-6.685-6.685v-10.696c0-3.692 2.993-6.685 6.685-6.685h69.522c3.692 0 6.685 2.993 6.685 6.685v10.696c0 3.692-2.993 6.685-6.685 6.685z" fill="#fed402"/></g><g><g><path d="m202.856 282.914h-17.38c-3.692 0-6.685-2.993-6.685-6.685v-17.38c0-3.692 2.993-6.685 6.685-6.685h17.38c3.692 0 6.685 2.993 6.685 6.685v17.38c0 3.692-2.993 6.685-6.685 6.685z" fill="#fed402"/></g><g><path d="m326.524 282.914h-17.38c-3.692 0-6.685-2.993-6.685-6.685v-17.38c0-3.692 2.993-6.685 6.685-6.685h17.38c3.692 0 6.685 2.993 6.685 6.685v17.38c0 3.692-2.993 6.685-6.685 6.685z" fill="#fed402"/></g></g></g><g><g><g><path d="m360.627 84h112.745c6.227 0 11.275 5.048 11.275 11.275v112.745c0 6.227-5.048 11.275-11.275 11.275h-69.501c-.796 0-1.559.316-2.121.879l-21.8 21.8c-2.131 2.131-5.774.622-5.774-2.392v-17.287c0-1.657-1.343-3-3-3h-10.548c-6.227 0-11.275-5.048-11.275-11.275v-112.746c0-6.226 5.048-11.274 11.274-11.274z" fill="#60b7ff"/></g><g><g><path d="m444 162h10c2.761 0 5-2.239 5-5v-10c0-2.761-2.239-5-5-5h-10c-2.761 0-5 2.239-5 5v10c0 2.761 2.239 5 5 5z" fill="#fff"/></g><g><path d="m412 162h10c2.761 0 5-2.239 5-5v-10c0-2.761-2.239-5-5-5h-10c-2.761 0-5 2.239-5 5v10c0 2.761 2.239 5 5 5z" fill="#fff"/></g><g><path d="m380 162h10c2.761 0 5-2.239 5-5v-10c0-2.761-2.239-5-5-5h-10c-2.761 0-5 2.239-5 5v10c0 2.761 2.239 5 5 5z" fill="#fff"/></g></g></g><g><g><g><g><path d="m151.373 84h-112.746c-6.227 0-11.274 5.048-11.274 11.274v112.746c0 6.227 5.048 11.275 11.275 11.275h69.501c.796 0 1.559.316 2.121.879l21.8 21.8c2.131 2.131 5.774.622 5.774-2.392v-17.287c0-1.657 1.343-3 3-3h10.548c6.227 0 11.275-5.048 11.275-11.275v-112.746c0-6.226-5.048-11.274-11.274-11.274z" fill="#8bc727"/></g></g><g><path d="m58.706 208.02v-112.746c0-6.226 5.048-11.274 11.274-11.274h-31.353c-6.227 0-11.275 5.048-11.275 11.274v112.746c0 6.227 5.048 11.275 11.275 11.275h31.353c-6.226-.001-11.274-5.049-11.274-11.275z" fill="#81b823"/></g><g><g><path d="m110.112 126.5h-52.612c-4.143 0-7.5-3.358-7.5-7.5s3.357-7.5 7.5-7.5h52.612c4.143 0 7.5 3.358 7.5 7.5s-3.357 7.5-7.5 7.5z" fill="#fff"/></g><g><path d="m132.5 157.5h-75c-4.143 0-7.5-3.358-7.5-7.5s3.357-7.5 7.5-7.5h75c4.143 0 7.5 3.358 7.5 7.5s-3.357 7.5-7.5 7.5z" fill="#fff"/></g><g><path d="m132.5 188.5h-75c-4.143 0-7.5-3.358-7.5-7.5s3.357-7.5 7.5-7.5h75c4.143 0 7.5 3.358 7.5 7.5s-3.357 7.5-7.5 7.5z" fill="#fff"/></g></g></g></g></g><path d="m373 0h-234c-5.523 0-10 4.477-10 10v105c0 5.523 4.477 10 10 10h94.81c1.065 0 2.051.565 2.589 1.484l14.079 24.043c1.931 3.298 6.698 3.298 8.629 0l14.079-24.043c.538-.919 1.524-1.484 2.589-1.484h97.225c5.523 0 10-4.477 10-10v-105c0-5.523-4.477-10-10-10z" fill="#fed402"/><g><path d="m159 115v-105c0-5.523 4.477-10 10-10h-30c-5.523 0-10 4.477-10 10v105c0 5.523 4.477 10 10 10h30c-5.523 0-10-4.477-10-10z" fill="#fac600"/></g><g><path d="m178 35.5h-4.5c-4.143 0-7.5-3.358-7.5-7.5s3.357-7.5 7.5-7.5h4.5c4.143 0 7.5 3.358 7.5 7.5s-3.357 7.5-7.5 7.5z" fill="#fff"/></g><g><path d="m338.5 35.5h-134.5c-4.143 0-7.5-3.358-7.5-7.5s3.357-7.5 7.5-7.5h134.5c4.143 0 7.5 3.358 7.5 7.5s-3.357 7.5-7.5 7.5z" fill="#fff"/></g><g><path d="m338.5 68h-165c-4.143 0-7.5-3.358-7.5-7.5s3.357-7.5 7.5-7.5h165c4.143 0 7.5 3.358 7.5 7.5s-3.357 7.5-7.5 7.5z" fill="#fff"/></g><g><path d="m252 100.5h-78.5c-4.143 0-7.5-3.358-7.5-7.5s3.357-7.5 7.5-7.5h78.5c4.143 0 7.5 3.358 7.5 7.5s-3.357 7.5-7.5 7.5z" fill="#fff"/></g></g></svg>