<svg id="Flat" height="512" viewBox="0 0 512 512" width="512" xmlns="http://www.w3.org/2000/svg"><rect fill="#8acce7" height="80" rx="24" width="240" x="24" y="248"/><circle cx="48" cy="288" fill="#e44042" r="8"/><circle cx="72" cy="288" fill="#eebe33" r="8"/><circle cx="96" cy="288" fill="#a2c32a" r="8"/><path d="m192 264h48v16h-48z" fill="#379ec3"/><path d="m192 296h48v16h-48z" fill="#379ec3"/><rect fill="#8acce7" height="80" rx="24" width="240" x="24" y="136"/><circle cx="48" cy="176" fill="#e44042" r="8"/><circle cx="72" cy="176" fill="#eebe33" r="8"/><circle cx="96" cy="176" fill="#a2c32a" r="8"/><path d="m192 152h48v16h-48z" fill="#379ec3"/><path d="m192 184h48v16h-48z" fill="#379ec3"/><rect fill="#8acce7" height="80" rx="24" width="240" x="24" y="24"/><circle cx="48" cy="64" fill="#e44042" r="8"/><circle cx="72" cy="64" fill="#eebe33" r="8"/><circle cx="96" cy="64" fill="#a2c32a" r="8"/><g fill="#379ec3"><path d="m192 40h48v16h-48z"/><path d="m192 72h48v16h-48z"/><path d="m48 104h32v32h-32z"/><path d="m208 104h32v32h-32z"/><path d="m48 216h32v32h-32z"/><path d="m208 216h32v32h-32z"/><path d="m48 328h32v32h-32z"/><path d="m208 328h32v32h-32z"/></g><path d="m352 80v-16h-64v16h24v368a7.99977 7.99977 0 0 0 8 8h32v-16h-24v-176h24v-16h-24v-168z" fill="#e44042"/><path d="m400 24h64a24 24 0 0 1 24 24v32h-88z" fill="#eebe33"/><path d="m376 48v48a24 24 0 0 0 24 24h64a24 24 0 0 0 24-24v-16a24 24 0 0 0 -24-24h-17.16718a24 24 0 0 1 -21.46626-13.26687l-2.73312-5.46626a24 24 0 0 0 -21.46626-13.26687h-1.16718a24 24 0 0 0 -24 24z" fill="#eedc9a"/><path d="m400 208h64a24 24 0 0 1 24 24v32h-88z" fill="#eebe33"/><path d="m376 232v48a24 24 0 0 0 24 24h64a24 24 0 0 0 24-24v-16a24 24 0 0 0 -24-24h-17.16718a24 24 0 0 1 -21.46626-13.26687l-2.73312-5.46626a24 24 0 0 0 -21.46626-13.26687h-1.16718a24 24 0 0 0 -24 24z" fill="#eedc9a"/><path d="m400 392h64a24 24 0 0 1 24 24v32h-88z" fill="#eebe33"/><path d="m376 416v48a24 24 0 0 0 24 24h64a24 24 0 0 0 24-24v-16a24 24 0 0 0 -24-24h-17.16718a24 24 0 0 1 -21.46626-13.26687l-2.73312-5.46626a24 24 0 0 0 -21.46626-13.26687h-1.16718a24 24 0 0 0 -24 24z" fill="#eedc9a"/></svg>