<?xml version="1.0" encoding="iso-8859-1"?>
<!-- Generator: Adobe Illustrator 19.0.0, SVG Export Plug-In . SVG Version: 6.00 Build 0)  -->
<svg version="1.1" id="Layer_1" xmlns="http://www.w3.org/2000/svg" xmlns:xlink="http://www.w3.org/1999/xlink" x="0px" y="0px"
	 viewBox="0 0 508 508" style="enable-background:new 0 0 508 508;" xml:space="preserve">
<circle style="fill:#84DBFF;" cx="254" cy="254" r="254"/>
<path style="fill:#FFFFFF;" d="M360.8,122.8c-46.8,0-84.8,30.8-84.8,69.2c0,6,0.8,12,2.8,17.6l-19.6,30l36-4
	c15.6,15.6,39.2,25.6,65.6,25.6c46.8,0,84.8-30.8,84.8-69.2C445.6,153.6,407.6,122.8,360.8,122.8z"/>
<path style="fill:#FFD05B;" d="M227.6,303.6c0,45.2-34.4,81.6-76.8,81.6s-78-36.4-78-81.6s-4-81.6,78-81.6
	C268.4,222,227.6,258.4,227.6,303.6z"/>
<path style="fill:#324A5E;" d="M227.6,308c45.6-128.8-26-130.8-26-130.8s0-31.2-85.2-15.6h18.4C25.2,176.8,72.8,310,72.8,310
	s0-67.2,24.4-76c16.8-6,48,12.8,93.2-4.4C235.2,212.4,227.6,308,227.6,308z"/>
<g>
	<circle style="fill:#FF7058;" cx="406.4" cy="192" r="14.8"/>
	<circle style="fill:#FF7058;" cx="360.8" cy="192" r="14.8"/>
	<circle style="fill:#FF7058;" cx="315.2" cy="192" r="14.8"/>
</g>
<g>
</g>
<g>
</g>
<g>
</g>
<g>
</g>
<g>
</g>
<g>
</g>
<g>
</g>
<g>
</g>
<g>
</g>
<g>
</g>
<g>
</g>
<g>
</g>
<g>
</g>
<g>
</g>
<g>
</g>
</svg>
