<?xml version="1.0" encoding="iso-8859-1"?>
<!-- Generator: Adobe Illustrator 19.0.0, SVG Export Plug-In . SVG Version: 6.00 Build 0)  -->
<svg version="1.1" id="Layer_1" xmlns="http://www.w3.org/2000/svg" xmlns:xlink="http://www.w3.org/1999/xlink" x="0px" y="0px"
	 viewBox="0 0 505 505" style="enable-background:new 0 0 505 505;" xml:space="preserve">
<circle style="fill:#84DBFF;" cx="252.5" cy="252.5" r="252.5"/>
<rect x="95.1" y="167.7" style="fill:#324A5E;" width="314.8" height="207.8"/>
<path style="fill:#FFFFFF;" d="M252.5,360.3c-46.9-8.9-95.1-8.9-142,0c0-74.7,0-149.3,0-224c46.9-8.9,95.1-8.9,142,0
	C252.5,210.9,252.5,285.6,252.5,360.3z"/>
<g>
	<path style="fill:#4CDBC4;" d="M233.1,167.7c-34.2-4.7-68.9-4.7-103.1,0c0-2.5,0-4.9,0-7.4c34.2-4.7,68.9-4.7,103.1,0
		C233.1,162.8,233.1,165.2,233.1,167.7z"/>
	<path style="fill:#4CDBC4;" d="M233.1,200.1c-34.2-4.7-68.9-4.7-103.1,0c0-2.5,0-4.9,0-7.4c34.2-4.7,68.9-4.7,103.1,0
		C233.1,195.2,233.1,197.7,233.1,200.1z"/>
	<path style="fill:#4CDBC4;" d="M233.1,232.6c-34.2-4.7-68.9-4.7-103.1,0c0-2.5,0-4.9,0-7.4c34.2-4.7,68.9-4.7,103.1,0
		C233.1,227.6,233.1,230.1,233.1,232.6z"/>
	<path style="fill:#4CDBC4;" d="M233.1,265c-34.2-4.7-68.9-4.7-103.1,0c0-2.5,0-4.9,0-7.4c34.2-4.7,68.9-4.7,103.1,0
		C233.1,260,233.1,262.5,233.1,265z"/>
	<path style="fill:#4CDBC4;" d="M233.1,297.4c-34.2-4.7-68.9-4.7-103.1,0c0-2.5,0-4.9,0-7.4c34.2-4.7,68.9-4.7,103.1,0
		C233.1,292.5,233.1,294.9,233.1,297.4z"/>
	<path style="fill:#4CDBC4;" d="M233.1,329.8c-34.2-4.7-68.9-4.7-103.1,0c0-2.5,0-4.9,0-7.4c34.2-4.7,68.9-4.7,103.1,0
		C233.1,324.9,233.1,327.3,233.1,329.8z"/>
</g>
<path style="fill:#EDF2F2;" d="M394.5,360.3c-46.9-8.9-95.1-8.9-142,0c0-74.7,0-149.3,0-224c46.9-8.9,95.1-8.9,142,0
	C394.5,210.9,394.5,285.6,394.5,360.3z"/>
<g>
	<path style="fill:#4CDBC4;" d="M375.1,167.7c-34.2-4.7-68.9-4.7-103.1,0c0-2.5,0-4.9,0-7.4c34.2-4.7,68.9-4.7,103.1,0
		C375.1,162.8,375.1,165.2,375.1,167.7z"/>
	<path style="fill:#4CDBC4;" d="M375.1,200.1c-34.2-4.7-68.9-4.7-103.1,0c0-2.5,0-4.9,0-7.4c34.2-4.7,68.9-4.7,103.1,0
		C375.1,195.2,375.1,197.7,375.1,200.1z"/>
	<path style="fill:#4CDBC4;" d="M375.1,232.6c-34.2-4.7-68.9-4.7-103.1,0c0-2.5,0-4.9,0-7.4c34.2-4.7,68.9-4.7,103.1,0
		C375.1,227.6,375.1,230.1,375.1,232.6z"/>
	<path style="fill:#4CDBC4;" d="M375.1,265c-34.2-4.7-68.9-4.7-103.1,0c0-2.5,0-4.9,0-7.4c34.2-4.7,68.9-4.7,103.1,0
		C375.1,260,375.1,262.5,375.1,265z"/>
	<path style="fill:#4CDBC4;" d="M375.1,297.4c-34.2-4.7-68.9-4.7-103.1,0c0-2.5,0-4.9,0-7.4c34.2-4.7,68.9-4.7,103.1,0
		C375.1,292.5,375.1,294.9,375.1,297.4z"/>
	<path style="fill:#4CDBC4;" d="M375.1,329.8c-34.2-4.7-68.9-4.7-103.1,0c0-2.5,0-4.9,0-7.4c34.2-4.7,68.9-4.7,103.1,0
		C375.1,324.9,375.1,327.3,375.1,329.8z"/>
</g>
<g>
</g>
<g>
</g>
<g>
</g>
<g>
</g>
<g>
</g>
<g>
</g>
<g>
</g>
<g>
</g>
<g>
</g>
<g>
</g>
<g>
</g>
<g>
</g>
<g>
</g>
<g>
</g>
<g>
</g>
</svg>
