<?xml version="1.0" encoding="iso-8859-1"?>
<!-- Generator: Adobe Illustrator 19.0.0, SVG Export Plug-In . SVG Version: 6.00 Build 0)  -->
<svg version="1.1" id="Layer_1" xmlns="http://www.w3.org/2000/svg" xmlns:xlink="http://www.w3.org/1999/xlink" x="0px" y="0px"
	 viewBox="0 0 508 508" style="enable-background:new 0 0 508 508;" xml:space="preserve">
<circle style="fill:#84DBFF;" cx="254" cy="254" r="254"/>
<rect x="262.582" y="242.414" transform="matrix(-0.7071 0.7071 -0.7071 -0.7071 674.7136 290.5524)" style="fill:#2B3B4E;" width="29.2" height="85.199"/>
<path style="fill:#324A5E;" d="M111.2,119.2c-40.8,40.8-40.8,106.8,0,147.6s106.8,40.8,147.6,0s40.8-106.8,0-147.6
	S152,78.4,111.2,119.2z M240,248c-30.4,30.4-79.6,30.4-110,0s-30.4-79.6,0-110s79.6-30.4,110,0S270.4,217.6,240,248z"/>
<path style="fill:#FFFFFF;" d="M130,138c-30.4,30.4-30.4,79.6,0,110s79.6,30.4,110,0s30.4-79.6,0-110S160.4,107.6,130,138z"/>
<path style="fill:#FF7058;" d="M294.8,270.8l-31.6,31.6c-2.8,2.8-2.8,7.2,0,9.6l97.2,97.2c2.8,2.8,7.2,2.8,9.6,0l31.6-31.6
	c2.8-2.8,2.8-7.2,0-9.6l-97.2-97.2C301.6,268.4,297.2,268.4,294.8,270.8z"/>
<g>
</g>
<g>
</g>
<g>
</g>
<g>
</g>
<g>
</g>
<g>
</g>
<g>
</g>
<g>
</g>
<g>
</g>
<g>
</g>
<g>
</g>
<g>
</g>
<g>
</g>
<g>
</g>
<g>
</g>
</svg>
