<?xml version="1.0" encoding="iso-8859-1"?>
<!-- Generator: Adobe Illustrator 19.0.0, SVG Export Plug-In . SVG Version: 6.00 Build 0)  -->
<svg version="1.1" id="Layer_1" xmlns="http://www.w3.org/2000/svg" xmlns:xlink="http://www.w3.org/1999/xlink" x="0px" y="0px"
	 viewBox="0 0 508 508" style="enable-background:new 0 0 508 508;" xml:space="preserve">
<circle style="fill:#84DBFF;" cx="254" cy="254" r="254"/>
<path style="fill:#54C0EB;" d="M48.4,402.8C94.4,466.4,169.6,508,254,508c84.8,0,159.6-41.6,205.6-105.2H48.4z"/>
<rect x="132" y="154.4" style="fill:#324A5E;" width="244" height="227.6"/>
<path style="fill:#E6E9EE;" d="M410,164.4H94.4c-5.6,0-10-4.4-10-10l0,0c0-5.6,4.4-10,10-10H410c5.6,0,10,4.4,10,10l0,0
	C420.4,160,415.6,164.4,410,164.4z"/>
<polygon style="fill:#FFFFFF;" points="252.4,52.4 97.6,144.4 406.8,144.4 "/>
<g>
	<polygon style="fill:#E6E9EE;" points="150.4,130 252.4,69.2 354,130 	"/>
	<path style="fill:#E6E9EE;" d="M360,164.4c-7.2,37.2-9.6,135.2-7.6,176.4c0,0.8,0,1.6,0,2.4h34.4c0-0.8,0-1.6,0-2.4
		c2-41.2-0.8-139.2-7.6-176.4H360z"/>
</g>
<g>
	<path style="fill:#FFFFFF;" d="M350.8,164.4v6.4c0,4,2.8,6.8,6,6.8h25.6c3.6,0,6-3.2,6-6.8v-6.4H350.8z"/>
	<path style="fill:#FFFFFF;" d="M397.2,360.4v-7.2c0-5.6-4-10-9.2-10h-37.2c-4.8,0-9.2,4.4-9.2,10v7.2H397.2z"/>
</g>
<path style="fill:#E6E9EE;" d="M282,164.4c-7.2,37.2-9.6,135.2-7.6,176.4c0,0.8,0,1.6,0,2.4h34.4c0-0.8,0-1.6,0-2.4
	c2-41.2-0.8-139.2-7.6-176.4H282z"/>
<g>
	<path style="fill:#FFFFFF;" d="M272.4,164.4v6.4c0,4,2.8,6.8,6,6.8H304c3.6,0,6-3.2,6-6.8v-6.4H272.4z"/>
	<path style="fill:#FFFFFF;" d="M319.2,360.4v-7.2c0-5.6-4-10-9.2-10h-37.2c-4.8,0-9.2,4.4-9.2,10v7.2H319.2z"/>
</g>
<path style="fill:#E6E9EE;" d="M203.6,164.4c-7.2,37.2-9.6,135.2-7.6,176.4c0,0.8,0,1.6,0,2.4h34.4c0-0.8,0-1.6,0-2.4
	c2-41.2-0.8-139.2-7.6-176.4H203.6z"/>
<g>
	<path style="fill:#FFFFFF;" d="M194.4,164.4v6.4c0,4,2.8,6.8,6,6.8H226c3.6,0,6-3.2,6-6.8v-6.4H194.4z"/>
	<path style="fill:#FFFFFF;" d="M240.8,360.4v-7.2c0-5.6-4-10-9.2-10h-37.2c-4.8,0-9.2,4.4-9.2,10v7.2H240.8z"/>
</g>
<path style="fill:#E6E9EE;" d="M125.6,164.4c-7.2,37.2-9.6,135.2-7.6,176.4c0,0.8,0,1.6,0,2.4h34.4c0-0.8,0-1.6,0-2.4
	c2-41.2-0.8-139.2-7.6-176.4H125.6z"/>
<g>
	<path style="fill:#FFFFFF;" d="M116.4,164.4v6.4c0,4,2.8,6.8,6,6.8H148c3.6,0,6-3.2,6-6.8v-6.4H116.4z"/>
	<path style="fill:#FFFFFF;" d="M162.8,360.4v-7.2c0-5.6-4-10-9.2-10h-37.2c-4.8,0-9.2,4.4-9.2,10v7.2H162.8z"/>
</g>
<rect x="84.4" y="360.4" style="fill:#E6E9EE;" width="339.2" height="42.4"/>
<rect x="166.8" y="381.6" style="fill:#ACB3BA;" width="174.4" height="21.6"/>
<rect x="166.8" y="360.4" style="fill:#CED5E0;" width="174.4" height="21.6"/>
<g>
</g>
<g>
</g>
<g>
</g>
<g>
</g>
<g>
</g>
<g>
</g>
<g>
</g>
<g>
</g>
<g>
</g>
<g>
</g>
<g>
</g>
<g>
</g>
<g>
</g>
<g>
</g>
<g>
</g>
</svg>
