<?xml version="1.0" encoding="iso-8859-1"?>
<!-- Generator: Adobe Illustrator 19.0.0, SVG Export Plug-In . SVG Version: 6.00 Build 0)  -->
<svg version="1.1" id="Layer_1" xmlns="http://www.w3.org/2000/svg" xmlns:xlink="http://www.w3.org/1999/xlink" x="0px" y="0px"
	 viewBox="0 0 508 508" style="enable-background:new 0 0 508 508;" xml:space="preserve">
<circle style="fill:#84DBFF;" cx="254" cy="254" r="254"/>
<path style="fill:#FFFFFF;" d="M311.2,306.8v-51.6c0-16-11.2-30-26.4-33.6c-1.6-0.4-3.2-0.8-4.4-1.2l-54-20
	c-2.8-3.2-4.8-7.2-4.8-11.6v-1.6c8-7.6,14-18.8,18-30.4c0.4,0.4,1.2,0.8,2,0.8c4.4,0.8,9.2-5.2,10.8-13.6c1.6-8.4-0.8-16-5.2-16.8
	c-0.8,0-1.6,0-2.4,0.4c0-1.2,0-2.4,0-3.6c0-0.8,0-1.2,0-2l0,0c0.4-5.6,0.8-10.8,0-16.4c-1.2-8-4-15.6-6.8-23.2c-0.8-2-1.6-4.4-2.8-6
	c-2.8-4.8-8.4-8-14-8.8c-2-0.4-4.4,0-6,1.6c-0.4,0.4-0.4,0.8-0.8,1.2c-1.2-1.6-2.4-2.8-4-3.6c-2-1.2-4.8-1.6-7.2-1.6
	c-12-1.2-22,1.6-34,3.2c-6,0.8-14,6-17.6,14.8c-3.2,8-5.6,14.4-7.2,22.8c-0.8,4.4-0.4,12.8,0.8,20c0,0.8,0,1.2,0,2
	c-0.8-0.4-1.6-0.4-2.4-0.4c-4.4,0.8-6.8,8.4-5.2,16.8c1.6,8.4,6.4,14.4,10.8,13.6c0.8,0,1.2-0.4,2-0.8c4,12,10.4,23.6,18.8,31.2v0.8
	c0,3.6-1.2,7.2-3.2,10c0.4,0.4-43.6,16.8-54.8,21.2c-1.6,0.8-3.6,1.2-5.2,1.6c-15.2,4-26.4,17.6-26.4,33.6v51.6h231.6V306.8z"/>
<rect x="262.4" y="242" style="fill:#324A5E;" width="163.2" height="122"/>
<rect x="262.4" y="242" style="fill:#2B3B4E;" width="163.2" height="62.8"/>
<path style="fill:#324A5E;" d="M428.4,290c-84.4,32-168.8,0-168.8,0v-48h168.8L428.4,290L428.4,290z"/>
<rect x="334.8" y="294" style="fill:#4CDBC4;" width="18" height="22"/>
<path style="fill:#324A5E;" d="M367.2,220h-46.4c-5.2,0-9.2,4-9.2,9.2V242H322v-11.6h43.2V242h10.4v-12.8C376,224,372,220,367.2,220
	z"/>
<g>
</g>
<g>
</g>
<g>
</g>
<g>
</g>
<g>
</g>
<g>
</g>
<g>
</g>
<g>
</g>
<g>
</g>
<g>
</g>
<g>
</g>
<g>
</g>
<g>
</g>
<g>
</g>
<g>
</g>
</svg>
