<?xml version="1.0" encoding="iso-8859-1"?>
<!-- Generator: Adobe Illustrator 19.0.0, SVG Export Plug-In . SVG Version: 6.00 Build 0)  -->
<svg version="1.1" id="Layer_1" xmlns="http://www.w3.org/2000/svg" xmlns:xlink="http://www.w3.org/1999/xlink" x="0px" y="0px"
	 viewBox="0 0 508 508" style="enable-background:new 0 0 508 508;" xml:space="preserve">
<circle style="fill:#84DBFF;" cx="254" cy="254" r="254"/>
<circle style="fill:#FFFFFF;" cx="254" cy="254" r="185.2"/>
<g>
	<path style="fill:#ACB3BA;" d="M117.2,241.6c2.4,1.2,4.8,2,7.2,3.2c2.4,1.6,4.8,3.6,6.8,6c4.4,6,8,15.6,15.2,14.8
		c2,0,3.6-1.2,5.6-1.2c6.8-0.4,9.6,10,7.2,17.2c-2.4,6.8-7.6,13.2-7.2,20.8c0.8,12,14.4,17.2,21.6,26.4c7.6,10.4,6.8,24.8,6.8,38
		c0,18.4,2.8,37.2,8.4,54.4c0,0,0,0,0,0.4c2.4,7.6,13.2,4.8,12.8-3.2l-1.6-20c6,0.4,11.6-3.6,14-9.2c0.8-2,0.8-4,2.4-5.6
		c2.4-2.8,6.8-2.4,8.8-5.6c1.2-2.4,0.4-5.2,0.8-8c0.4-6.8,6.4-11.6,10.8-16.8c9.2-10.4,12-25.6,14.4-39.6c0.4-2.8,0.8-5.6,0-8.4
		c-0.8-2.4-2.8-4-4.8-5.2c-15.2-11.6-30.8-23.2-46-35.2c-7.6-5.6-16-11.6-25.2-11.2c-8.8,0.8-17.2,7.2-25.2,4.4
		c2.4-6-0.8-13.6-6.4-16.4c-1.6-0.8-3.6-1.2-4.4-2.8c-2.4-4.4,5.2-11.2,1.2-13.6l-26.4,3.6c-3.2-14.8,10.8-28.4,24.8-30.4
		c2-0.4,4-0.4,6,0.4c4,1.6,5.2,6.4,7.6,10.4c2,3.6,7.2,7.2,10,4c-1.2-6.8-2.8-13.6-1.2-20.4c2.8-12.8,15.2-20.8,26-26.8
		c7.2-4,16-8.4,23.6-5.2c1.2-4.4,1.2-11.6-3.2-11.6c-1.6-5.2,6.4-6.8,10.4-3.6c2,2,4,4.4,6.4,6.4s6,0.4,6.8-2.8l0,0
		c0.4-2.4-0.8-4.8-3.2-5.6c-2-0.8-4-1.6-5.6-2.8c-2.8-2.4-4.4-6.4-2.8-9.6c0.8-1.6,2-2.8,2.8-4c2-5.6-5.2-9.6-10.8-10.4
		c-2.8-0.4-5.6-0.8-8.4-0.8c-4.8,0-8.8,3.2-11.2,8c-1.6,3.2-5.2,5.6-8.8,5.2c-5.2-0.4-9.6-4.4-13.6-8.4c6.8-7.2,15.6-12.4,25.2-14.4
		c6-1.2,10.4-5.6,14-10.8c1.2-2,3.6-3.6,6-3.6c-2.8-2,3.2-6.4,2.4-10c-0.4-1.6-2-2.4-3.6-2.8c-5.2-1.2-10.8-2-16-2
		c-53.2,17.2-96,58-115.6,110c2.8,10,8,19.6,13.2,28.4C100.4,226.4,107.2,236.8,117.2,241.6z"/>
	<path style="fill:#ACB3BA;" d="M384.4,124.4c-18-1.6-36.8,2.8-52.4,12.4c-2.8,2-6,5.6-4,8c0.8,0.8,2,1.2,2.8,1.6
		c8.4,2.4,17.6-0.8,25.6-4c2.8-1.2,5.6-2.4,8.4-3.6c2.8,3.6-1.2,8-4.4,10.8c-4.4,3.2-8.8,6.8-14,8.4c-4.4,1.2-9.2,0.8-14,1.6
		c-11.6,1.6-21.6,10-25.6,21.2c-4,1.2-8,2-12,3.2c-2,5.6,2.4,11.6,8,13.2c5.6,1.2,11.6-1.6,14.8-6.4c1.2-2,2.4-4,4.4-5.2
		c4-2.4,10,0.4,13.6-2.8c1.2-0.8,1.6-2.4,2.8-3.2c2-1.6,5.2-0.4,7.2,1.6s3.2,4.4,5.2,6c2,1.2,4,2,6.4,2.8c7.6,2,14.8,4,22.4,6.4
		c0.4,5.6-4.8,10.4-10.4,11.2c-2.4,0.4-4.8,0-7.2,1.2c-1.6,0.8-2.8,2-4.4,2.8c-14,9.2-32-8.4-48-4c-5.6,1.6-10.4,6-14.4,10.4
		c-10.4,10.8-20.8,25.2-13.2,40.4c2,3.6,4.8,6.4,8,8.8c10.4,7.2,23.2,7.6,35.2,6.4c1.6,0,3.6-0.4,4.8,0.4c2.8,2,1.6,6,1.6,9.2
		c-0.4,9.2,10.4,15.6,10.8,24.4c0.4,4-1.6,8-2.4,12c-2.4,10,0.8,20.4,4,30.4c2.4,8,5.6,16.4,12.4,21.6c4.4,3.2,10.8,4.4,15.6,1.6
		c9.2-4.4,4.8-14,9.2-20.4c2-2.4,5.2-4.4,5.6-7.2c0.8-2.8-1.6-5.6-1.2-8.8c0.4-4.4,5.6-6,8.4-9.6c5.2-6,1.2-15.2,2-23.2
		c2-14.8,20.8-23.6,21.2-38.4c0-1.6-0.4-4-2-4.8c-1.2-0.8-2.4-0.4-4-0.4c-5.2,0-9.2-4.8-11.2-9.2c-2-4.8-3.2-10-6-14
		c-2-2.8-4.8-5.2-6.8-8s-2.8-7.2-0.8-10c0.8-3.6,6-3.6,8.8-1.2c2.4,2.4,2.8,6.4,3.2,10c0.4,3.6,0.4,7.2,2.8,10s6.8,4,8.8,7.2
		c1.2,2.4,1.6,5.6,4,6.8c2,1.2,4.4,0,6.4-1.2c4.4-2.4,8.8-4.8,13.2-7.2c0.8-0.4,2-1.2,2.4-2c2-3.6-3.6-6.4-7.6-7.6
		c-7.2-2.4-12.4-9.6-12.8-17.6c7.2,2,14,4.4,21.2,6.4h0.4c-6.4-38-24.4-72-50-98.8C386,124.8,385.2,124.8,384.4,124.4z"/>
</g>
<g>
</g>
<g>
</g>
<g>
</g>
<g>
</g>
<g>
</g>
<g>
</g>
<g>
</g>
<g>
</g>
<g>
</g>
<g>
</g>
<g>
</g>
<g>
</g>
<g>
</g>
<g>
</g>
<g>
</g>
</svg>
