<?xml version="1.0" encoding="iso-8859-1"?>
<!-- Generator: Adobe Illustrator 19.0.0, SVG Export Plug-In . SVG Version: 6.00 Build 0)  -->
<svg version="1.1" id="Capa_1" xmlns="http://www.w3.org/2000/svg" xmlns:xlink="http://www.w3.org/1999/xlink" x="0px" y="0px"
	 viewBox="0 0 512 512" style="enable-background:new 0 0 512 512;" xml:space="preserve">
<circle style="fill:#827DDC;" cx="256" cy="256" r="256"/>
<path style="fill:#6E64C3;" d="M512,256c0-8.907-0.457-17.708-1.345-26.38L399.136,118.101l-154.932,18.415v15.228l-13.61-13.61
	l-117.73,13.993v97.031l13.61,13.61h-13.61v95.103L266.75,511.759C403.147,506.122,512,393.782,512,256z"/>
<g>
	<polygon style="fill:#661C91;" points="230.594,249.159 230.594,138.134 112.864,152.128 112.864,249.159 	"/>
	<polygon style="fill:#661C91;" points="244.204,249.159 399.136,249.159 399.136,118.101 244.204,136.516 	"/>
	<polygon style="fill:#661C91;" points="230.594,262.769 112.864,262.769 112.864,357.872 230.594,371.866 	"/>
	<polygon style="fill:#661C91;" points="244.204,262.769 244.204,373.483 399.136,391.899 399.136,262.769 	"/>
</g>
<g>
</g>
<g>
</g>
<g>
</g>
<g>
</g>
<g>
</g>
<g>
</g>
<g>
</g>
<g>
</g>
<g>
</g>
<g>
</g>
<g>
</g>
<g>
</g>
<g>
</g>
<g>
</g>
<g>
</g>
</svg>
