<svg height="512pt" viewBox="0 0 512 512" width="512pt" xmlns="http://www.w3.org/2000/svg"><path d="m512 256c0 141.386719-114.613281 256-256 256s-256-114.613281-256-256 114.613281-256 256-256 256 114.613281 256 256zm0 0" fill="#4a8dc6"/><path d="m511.785156 266.039062-136.5-136.496093-74.789062 74.792969-49.667969-49.667969-142.371094 142.371093 207.808594 207.808594c109.167969-26.34375 191.039063-122.644531 195.519531-238.808594zm0 0" fill="#185e98"/><path d="m325.609375 346.503906h39.402344v69.609375h-39.402344zm0 0" fill="#fcd999"/><path d="m256 287.402344v29.550781c0 27.199219 22.050781 49.25 49.253906 49.25h59.757813c16.320312 0 29.550781-13.230469 29.550781-29.550781v-49.25zm0 0" fill="#fbc566"/><path d="m424.113281 248v68.953125h-99.160156l-9.851563-13.136719-9.847656 13.136719h-39.402344l-62.386718-59.101563 52.535156-177.964843c23.121094 0 44.351562 11.433593 57.105469 30.292969 4.28125-.820313 8.640625-1.234376 13.03125-1.234376 18.414062 0 35.722656 7.164063 48.738281 20.179688 16.339844 16.339844 23.265625 39.429688 18.953125 61.773438 18.859375 12.75 30.285156 33.988281 30.285156 57.101562zm0 0" fill="#fd5f6e"/><path d="m256 79.886719v223.929687l-9.851562 13.136719h-39.398438l-9.851562-13.136719-9.847657 13.136719h-30.210937c-38.023438 0-68.953125-30.929687-68.953125-68.953125 0-23.113281 11.425781-44.351562 30.289062-57.097656-4.316406-22.347656 2.613281-45.4375 18.953125-61.777344 13.015625-13.015625 30.324219-20.179688 48.738282-20.179688 4.386718 0 8.746093.414063 13.027343 1.234376 12.753907-18.859376 33.984375-30.292969 57.105469-30.292969zm0 0" fill="#fa9647"/><path d="m187.046875 257.851562h19.703125v59.101563h-19.703125zm0 0" fill="#0e3759"/><path d="m196.898438 267.699219c-16.292969 0-29.550782-13.253907-29.550782-29.550781 0-16.292969 13.257813-29.550782 29.550782-29.550782 16.292968 0 29.550781 13.257813 29.550781 29.550782 0 16.296874-13.257813 29.550781-29.550781 29.550781zm0 0" fill="#feeccc"/><path d="m246.148438 208.597656h19.703124v108.355469h-19.703124zm0 0" fill="#092339"/><path d="m285.550781 188.898438c0-16.320313-13.230469-29.550782-29.550781-29.550782l-13.132812 29.550782 13.132812 29.550781c16.320312 0 29.550781-13.230469 29.550781-29.550781zm0 0" fill="#fcd999"/><path d="m256 218.449219v-59.101563c-16.320312 0-29.550781 13.230469-29.550781 29.550782 0 16.320312 13.230469 29.550781 29.550781 29.550781zm0 0" fill="#feeccc"/><path d="m305.253906 257.851562h19.699219v59.101563h-19.699219zm0 0" fill="#092339"/><path d="m315.101562 267.699219c-16.292968 0-29.550781-13.253907-29.550781-29.550781 0-16.292969 13.257813-29.550782 29.550781-29.550782 16.292969 0 29.550782 13.257813 29.550782 29.550782 0 16.296874-13.253906 29.550781-29.550782 29.550781zm0 0" fill="#fcd999"/></svg>