<?xml version="1.0" encoding="iso-8859-1"?>
<!-- Generator: Adobe Illustrator 19.0.0, SVG Export Plug-In . SVG Version: 6.00 Build 0)  -->
<svg version="1.1" id="Layer_1" xmlns="http://www.w3.org/2000/svg" xmlns:xlink="http://www.w3.org/1999/xlink" x="0px" y="0px"
	 viewBox="0 0 508 508" style="enable-background:new 0 0 508 508;" xml:space="preserve">
<circle style="fill:#90DFAA;" cx="254" cy="254" r="254"/>
<path style="fill:#324A5E;" d="M397.4,179.3H299c-0.5,0-0.9-0.4-0.9-0.9v-70.1c0-0.5,0.4-0.9,0.9-0.9h98.4c0.5,0,0.9,0.4,0.9,0.9
	v70.1C398.3,178.8,397.9,179.3,397.4,179.3z"/>
<rect x="304.4" y="114" style="fill:#FFFFFF;" width="87.5" height="58.6"/>
<g>
	<path style="fill:#324A5E;" d="M292.8,185.9c0,4.9,4,8.9,8.9,8.9h92.9c4.9,0,8.9-4,8.9-8.9H292.8z"/>
	<path style="fill:#324A5E;" d="M397.4,284.2H299c-0.5,0-0.9-0.4-0.9-0.9v-70.1c0-0.5,0.4-0.9,0.9-0.9h98.4c0.5,0,0.9,0.4,0.9,0.9
		v70.1C398.3,283.8,397.9,284.2,397.4,284.2z"/>
</g>
<rect x="304.4" y="218.9" style="fill:#FFFFFF;" width="87.5" height="58.6"/>
<g>
	<path style="fill:#324A5E;" d="M292.8,290.8c0,4.9,4,8.9,8.9,8.9h92.9c4.9,0,8.9-4,8.9-8.9H292.8z"/>
	<path style="fill:#324A5E;" d="M397.4,389.1H299c-0.5,0-0.9-0.4-0.9-0.9v-70.1c0-0.5,0.4-0.9,0.9-0.9h98.4c0.5,0,0.9,0.4,0.9,0.9
		v70.1C398.3,388.7,397.9,389.1,397.4,389.1z"/>
</g>
<rect x="304.4" y="323.8" style="fill:#FFFFFF;" width="87.5" height="58.6"/>
<path style="fill:#324A5E;" d="M292.8,395.8c0,4.9,4,8.9,8.9,8.9h92.9c4.9,0,8.9-4,8.9-8.9H292.8z"/>
<path style="fill:#FFFFFF;" d="M273.4,260.9c2.2,0,4-1.8,4-4s-1.8-4-4-4h-31.5v-74.2c0-17.4,14.1-31.5,31.5-31.5c2.2,0,4-1.8,4-4
	s-1.8-4-4-4c-21.7,0-39.4,17.7-39.4,39.4V253h-29.8c-2.2,0-4,1.8-4,4s1.8,4,4,4H234v74.2c0,21.7,17.7,39.4,39.4,39.4
	c2.2,0,4-1.8,4-4s-1.8-4-4-4c-17.4,0-31.5-14.1-31.5-31.5v-74.2L273.4,260.9L273.4,260.9z"/>
<path style="fill:#324A5E;" d="M176.7,353.1h-92c-1.8,0-3.3-1.5-3.3-3.3V158.2c0-1.8,1.5-3.3,3.3-3.3h92c1.8,0,3.3,1.5,3.3,3.3
	v191.6C180,351.6,178.5,353.1,176.7,353.1z"/>
<g>
	<rect x="88.5" y="170.1" style="fill:#2B3B4E;" width="84.3" height="27.3"/>
	<rect x="88.5" y="204.1" style="fill:#2B3B4E;" width="84.3" height="27.3"/>
	<rect x="88.7" y="238" style="fill:#2B3B4E;" width="84.3" height="27.3"/>
</g>
<circle style="fill:#FF7058;" cx="130.7" cy="291.6" r="9.8"/>
<circle style="fill:#84DBFF;" cx="130.7" cy="312.6" r="5.4"/>
<g>
</g>
<g>
</g>
<g>
</g>
<g>
</g>
<g>
</g>
<g>
</g>
<g>
</g>
<g>
</g>
<g>
</g>
<g>
</g>
<g>
</g>
<g>
</g>
<g>
</g>
<g>
</g>
<g>
</g>
</svg>
