<?xml version="1.0" encoding="iso-8859-1"?>
<!-- Generator: Adobe Illustrator 19.0.0, SVG Export Plug-In . SVG Version: 6.00 Build 0)  -->
<svg version="1.1" id="Layer_1" xmlns="http://www.w3.org/2000/svg" xmlns:xlink="http://www.w3.org/1999/xlink" x="0px" y="0px"
	 viewBox="0 0 508 508" style="enable-background:new 0 0 508 508;" xml:space="preserve">
<circle style="fill:#324A5E;" cx="254" cy="254" r="254"/>
<path style="fill:#84DBFF;" d="M254,374v20c-26,0-50.8-7.2-71.6-20H254z"/>
<circle style="fill:#FFD05B;" cx="254" cy="254" r="100"/>
<circle style="fill:#F9B54C;" cx="254" cy="254" r="78"/>
<path style="fill:#FFFFFF;" d="M281.2,273.6c0-15.2-12.4-27.2-27.2-27.2c-6.4,0-11.6-5.2-11.6-11.6c0-6.4,5.2-11.6,11.6-11.6
	c3.2,0,6.4,1.2,8.4,3.6c2.8,3.2,8,3.2,11.2,0.4s3.2-8,0.4-11.2c-3.2-3.6-7.6-6-12-7.6v-5.6c0-4.4-3.6-8-8-8s-8,3.6-8,8v5.6
	c-11.2,3.2-19.6,14-19.6,26c0,15.2,12.4,27.2,27.2,27.2c6.4,0,11.6,5.2,11.6,11.6s-5.2,11.6-11.6,11.6c-3.2,0-6.4-1.2-8.4-3.6
	c-2.8-3.2-8-3.2-11.2-0.4c-3.2,2.8-3.2,8-0.4,11.2c3.2,3.6,7.6,6,12,7.6v5.6c0,4.4,3.6,8,8,8c4.4,0,8-3.6,8-8v-5.6
	C273.2,296.4,281.2,286,281.2,273.6z"/>
<path style="fill:#FF7058;" d="M393.6,254c0,37.2-14.4,72.4-40.8,98.8c-26.4,26.4-61.6,40.8-98.8,40.8H113.6l17.2,17.2
	c4,4,4,10,0,14c-2,2-4.4,2.8-7.2,2.8c-2.4,0-5.2-0.8-7.2-2.8l-34-34c-4-4-4-10,0-14l34-34c4-4,10-4,14,0s4,10,0,14L113.6,374H254
	c32,0,62-12.4,84.8-35.2C361.2,316,374,286,374,254c0-66-53.6-120-120-120h71.6C366.4,158.8,393.6,203.2,393.6,254z"/>
<path style="fill:#84DBFF;" d="M425.2,131.2l-34,34c-2,2-4.4,2.8-7.2,2.8c-2.4,0-5.2-0.8-7.2-2.8c-4-4-4-10,0-14L394,134H254
	c-66,0-120,53.6-120,120c0,66,53.6,120,120,120h-71.6c-40.8-24.4-68-69.2-68-120c0-77.2,62.8-139.6,139.6-139.6h140.4l-17.2-17.2
	c-4-4-4-10,0-14s10-4,14,0l34,34C429.2,121.2,429.2,127.2,425.2,131.2z"/>
<g>
</g>
<g>
</g>
<g>
</g>
<g>
</g>
<g>
</g>
<g>
</g>
<g>
</g>
<g>
</g>
<g>
</g>
<g>
</g>
<g>
</g>
<g>
</g>
<g>
</g>
<g>
</g>
<g>
</g>
</svg>
