<svg xmlns="http://www.w3.org/2000/svg" width="80" height="80" viewBox="0 0 80 80"><g transform="translate(-375 -182)"><path d="M0,0H50A30,30,0,0,1,80,30V80a0,0,0,0,1,0,0H0a0,0,0,0,1,0,0V0A0,0,0,0,1,0,0Z" transform="translate(375 182)" fill="#166f3c"/><g transform="translate(398.863 198.129)"><path d="M256.454,355.249h1.668v48.122H252.6c0-2.692,0-1.724,0-3.85V359.1a3.85,3.85,0,0,1,3.85-3.85" transform="translate(-252.6 -355.245)" fill="#6bc069"/><path d="M300.552,383.795a4.889,4.889,0,0,0-4.2-2.152,5.179,5.179,0,0,0-4.407,2.049,9.206,9.206,0,0,0-1.537,5.637v14.04h-6.969V355.228h3.484a3.5,3.5,0,0,1,3.484,3.486v20.978a8.134,8.134,0,0,1,5.227-3.895,10.39,10.39,0,0,1,6.456.41,11.527,11.527,0,0,1,4.817,3.895,12.3,12.3,0,0,1,1.947,7.38v15.887h-6.866V389.227a14.4,14.4,0,0,0-.256-2.819,7.063,7.063,0,0,0-1.179-2.613" transform="translate(-276.593 -355.228)" fill="#fff"/></g></g></svg>