<?xml version="1.0" encoding="iso-8859-1"?>
<!-- Generator: Adobe Illustrator 19.0.0, SVG Export Plug-In . SVG Version: 6.00 Build 0)  -->
<svg version="1.1" id="Layer_1" xmlns="http://www.w3.org/2000/svg" xmlns:xlink="http://www.w3.org/1999/xlink" x="0px" y="0px"
	 viewBox="0 0 506 506" style="enable-background:new 0 0 506 506;" xml:space="preserve">
<circle style="fill:#324A5E;" cx="253" cy="253" r="253"/>
<path style="fill:#84DBFF;" d="M147.8,251.8c-1,3.3-1.6,6.7-1.6,10.1c0,8.6,3.2,16.6,8.7,22.9h196.3c5.4-6.3,8.7-14.3,8.7-22.9
	c0-3.4-0.5-6.8-1.6-10.1c6.6-6.6,10.5-15.4,10.5-24.8c0-6.1-1.7-12-4.8-17.4c3.1-5.2,4.8-11.2,4.8-17.5c0-12.9-7.3-24.6-19.1-31.3
	c6.3-6.5,10.2-15.1,10.2-24.5c0-16.8-12.2-31.3-29.7-35.5c-3.4-17.1-19.6-30.2-39.1-30.2c-17.8,0-32.8,10.8-37.9,25.6
	c-5.1-14.8-20.2-25.6-37.9-25.6c-19.5,0-35.8,13-39.1,30.2c-17.5,4.2-29.7,18.7-29.7,35.5c0,9.4,3.9,18,10.2,24.5
	c-11.8,6.7-19.1,18.4-19.1,31.3c0,6.3,1.7,12.3,4.8,17.5c-3.1,5.3-4.8,11.3-4.8,17.4C137.3,236.6,141.3,245.3,147.8,251.8z"/>
<g>
	<path style="fill:#54C0EB;" d="M145.7,252.4c-0.9,3.1-1.3,6.3-1.3,9.6c0,8.6,3,16.5,8.1,22.9H163c-6.9-5.7-11.1-13.9-11.1-22.9
		c0-1.4,0.1-2.7,0.3-4c7,4.8,15.6,7.8,25,7.8v-7.5c-18.9,0-34.2-14-34.2-31.1c0-3.6,0.7-7,2-10.4c7.7,8.6,19.2,14.1,32.2,14.1
		c23,0,41.7-17.3,41.7-38.6h-7.5c0,17.2-15.3,31.1-34.2,31.1s-34.2-14-34.2-31.1c0-10.8,6.2-20.7,16.2-26.4
		c7.3,5.7,16.7,9.2,26.9,9.2v-7.5c-18.9,0-34.2-14-34.2-31.1c0-12.9,8.7-24.3,21.6-28.9c0,21.3,18.7,38.6,41.7,38.6v-7.5
		c-18.9,0-34.2-14-34.2-31.1s15.3-31.1,34.2-31.1s34.2,14,34.2,31.1V285h7.5V107.6c0-17.2,15.3-31.1,34.2-31.1
		c18.9,0,34.2,14,34.2,31.1c0,17.2-15.3,31.1-34.2,31.1v7.5c23,0,41.7-17.3,41.7-38.6c12.9,4.6,21.6,16,21.6,28.9
		c0,17.2-15.3,31.1-34.2,31.1v7.5c10.3,0,19.7-3.5,26.9-9.2c10,5.7,16.2,15.6,16.2,26.4c0,17.2-15.3,31.1-34.2,31.1
		c-18.9,0-34.2-14-34.2-31.1h-7.5c0,21.3,18.7,38.6,41.7,38.6c12.9,0,24.5-5.5,32.2-14.1c1.3,3.3,2,6.8,2,10.4
		c0,12.9-8.9,24.7-22.3,29.2l2.4,7.1c3.9-1.3,7.4-3.1,10.6-5.4c0.2,1.3,0.3,2.6,0.3,4c0,9-4.3,17.2-11.1,22.9h10.5
		c5.1-6.4,8.1-14.3,8.1-22.9c0-3.3-0.5-6.5-1.3-9.6c6.4-6.9,10.2-15.8,10.2-25.3c0-6.1-1.6-12-4.6-17.4c2.9-5.3,4.6-11.2,4.6-17.5
		c0-12.8-6.8-24.6-18-31.8c5.7-6.6,9.1-14.9,9.1-24c0-17.3-12.2-32.2-30-37C327.8,82.1,311,69,291,69c-16.9,0-31.4,9.3-37.9,22.7
		C246.5,78.3,232,69,215.2,69c-20,0-36.7,13.1-40.7,30.5c-17.7,4.8-30,19.7-30,37c0,9.1,3.4,17.4,9.1,24c-11.2,7.2-18,18.9-18,31.8
		c0,6.3,1.7,12.2,4.6,17.5c-2.9,5.4-4.6,11.3-4.6,17.4C135.4,236.8,139.3,245.6,145.7,252.4z"/>
	<path style="fill:#54C0EB;" d="M332.5,284.9c0-0.5,0.1-1,0.1-1.5c0-21.3-18.7-38.6-41.7-38.6v7.5c18.9,0,34.2,14,34.2,31.1
		c0,0.5-0.1,1-0.1,1.5H332.5z"/>
	<path style="fill:#54C0EB;" d="M180.8,283.3c0-17.2,15.3-31.1,34.2-31.1v-7.5c-23,0-41.7,17.3-41.7,38.6c0,0.5,0.1,1,0.1,1.5h7.5
		C180.9,284.4,180.8,283.8,180.8,283.3z"/>
</g>
<path style="fill:#CED5E0;" d="M191.1,356.4l0.3,2.3c0.6,4.7,0.9,9.4,0.9,13.9v35.6c0,3.9,3.1,7,7,7h107.3c1.9,0,3.6-0.7,5-2
	s2-3.1,2-5v-35.6c0-4.6,0.3-9.3,0.9-14l0.3-2.3L191.1,356.4z"/>
<g>
	<rect x="192.4" y="372.4" style="fill:#ACB3BA;" width="121.3" height="4.2"/>
	<rect x="192.4" y="384.9" style="fill:#ACB3BA;" width="121.3" height="4.2"/>
	<rect x="192.4" y="398.6" style="fill:#ACB3BA;" width="121.3" height="4.2"/>
</g>
<path style="fill:#FFD05B;" d="M152.3,284.5c3.6,5.6,7.7,11,12.3,16.1c14.7,16.1,24,36.3,26.8,58.2l0.2,1.8h122.7l0.2-1.8
	c2.8-22.1,11.9-42,26.3-57.6c4.8-5.2,9.1-10.8,12.8-16.7H152.3z"/>
<path style="fill:#ACB3BA;" d="M290.3,415.3c0,12-16.7,21.8-37.3,21.8s-37.3-9.7-37.3-21.8"/>
<g>
</g>
<g>
</g>
<g>
</g>
<g>
</g>
<g>
</g>
<g>
</g>
<g>
</g>
<g>
</g>
<g>
</g>
<g>
</g>
<g>
</g>
<g>
</g>
<g>
</g>
<g>
</g>
<g>
</g>
</svg>
