<?xml version="1.0" encoding="iso-8859-1"?>
<!-- Generator: Adobe Illustrator 19.0.0, SVG Export Plug-In . SVG Version: 6.00 Build 0)  -->
<svg version="1.1" id="Layer_1" xmlns="http://www.w3.org/2000/svg" xmlns:xlink="http://www.w3.org/1999/xlink" x="0px" y="0px"
	 viewBox="0 0 508 508" style="enable-background:new 0 0 508 508;" xml:space="preserve">
<circle style="fill:#84DBFF;" cx="254" cy="254" r="254"/>
<path style="fill:#324A5E;" d="M160.8,356.4l-7.6,8.4l-6-42l14.4,20.8C164.4,347.2,164,352.8,160.8,356.4z"/>
<path id="SVGCleanerId_0" style="fill:#FFFFFF;" d="M138.4,399.6c-8.4,0-15.2-5.6-17.2-14L102,293.2h40.8l12.8,86.4
	C157.2,390,149.2,399.6,138.4,399.6z"/>
<g>
	<path id="SVGCleanerId_0_1_" style="fill:#FFFFFF;" d="M138.4,399.6c-8.4,0-15.2-5.6-17.2-14L102,293.2h40.8l12.8,86.4
		C157.2,390,149.2,399.6,138.4,399.6z"/>
</g>
<path style="fill:#FFFFFF;" d="M394.8,360.8C366,341.2,285.2,293.2,180,293.2c-4,0-8.4,0-12.4,0.4l0,0c-2.4-17.6-4-37.2-4-58
	s1.6-40.8,4-58.4l0,0c110.8,4,197.2-47.2,227.2-67.2c-16.8,12.4-29.2,64-29.2,125.6C365.6,296.8,378,348,394.8,360.8z"/>
<ellipse style="fill:#E6E9EE;" cx="402.8" cy="235.2" rx="37.2" ry="128.4"/>
<path style="fill:#324A5E;" d="M167.6,176.8c-2.4,17.6-4,37.2-4,58.4c0,20.8,1.6,40.8,4,58l0,0h-84c-8.8,0-16-7.2-16-16v-84.4
	c0-8.8,7.2-16,16-16H167.6L167.6,176.8z"/>
<path style="fill:#CED5E0;" d="M414,270.4l-46.4,7.2c-1.2-13.2-2-27.6-2-42.4c0-14.8,0.8-29.2,2-42.4L414,200
	c-5.6,0-10.4,15.6-10.4,35.2C403.6,254.4,408,270.4,414,270.4z"/>
<ellipse style="fill:#FFFFFF;" cx="414" cy="235.2" rx="10.4" ry="35.2"/>
<g>
</g>
<g>
</g>
<g>
</g>
<g>
</g>
<g>
</g>
<g>
</g>
<g>
</g>
<g>
</g>
<g>
</g>
<g>
</g>
<g>
</g>
<g>
</g>
<g>
</g>
<g>
</g>
<g>
</g>
</svg>
