<?xml version="1.0" encoding="iso-8859-1"?>
<!-- Generator: Adobe Illustrator 19.0.0, SVG Export Plug-In . SVG Version: 6.00 Build 0)  -->
<svg version="1.1" id="Capa_1" xmlns="http://www.w3.org/2000/svg" xmlns:xlink="http://www.w3.org/1999/xlink" x="0px" y="0px"
	 viewBox="0 0 490.656 490.656" style="enable-background:new 0 0 490.656 490.656;" xml:space="preserve">
<g>
	<g>
		<path d="M487.536,216.467c-4.16-4.16-10.923-4.16-15.083,0L245.339,443.581L18.203,216.467c-4.16-4.16-10.923-4.16-15.083,0
			c-4.16,4.16-4.16,10.923,0,15.083l234.667,234.667c2.091,2.069,4.821,3.115,7.552,3.115s5.461-1.045,7.531-3.115l234.667-234.667
			C491.696,227.389,491.696,220.627,487.536,216.467z"/>
	</g>
</g>
<g>
	<g>
		<path d="M487.536,24.445c-4.16-4.16-10.923-4.16-15.083,0L245.339,251.581L18.203,24.467c-4.16-4.16-10.923-4.16-15.083,0
			c-4.16,4.16-4.16,10.923,0,15.083l234.667,234.667c2.091,2.069,4.821,3.115,7.552,3.115s5.461-1.045,7.531-3.136L487.536,39.528
			C491.696,35.368,491.696,28.605,487.536,24.445z"/>
	</g>
</g>
<g>
</g>
<g>
</g>
<g>
</g>
<g>
</g>
<g>
</g>
<g>
</g>
<g>
</g>
<g>
</g>
<g>
</g>
<g>
</g>
<g>
</g>
<g>
</g>
<g>
</g>
<g>
</g>
<g>
</g>
</svg>
