<?xml version="1.0" encoding="iso-8859-1"?>
<!-- Generator: Adobe Illustrator 19.0.0, SVG Export Plug-In . SVG Version: 6.00 Build 0)  -->
<svg version="1.1" id="Layer_1" xmlns="http://www.w3.org/2000/svg" xmlns:xlink="http://www.w3.org/1999/xlink" x="0px" y="0px"
	 viewBox="0 0 508 508" style="enable-background:new 0 0 508 508;" xml:space="preserve">
<circle style="fill:#324A5E;" cx="254" cy="254" r="254"/>
<path style="fill:#FFFFFF;" d="M376.4,124.4H131.6c-11.2,0-20.4,9.2-20.4,20.4v218.4c0,11.2,9.2,20.4,20.4,20.4h245.2
	c11.2,0,20.4-9.2,20.4-20.4V144.8C396.8,133.6,387.6,124.4,376.4,124.4z"/>
<path style="fill:#84DBFF;" d="M396.8,182.4v-37.6c0-11.2-9.2-20.4-20.4-20.4H131.6c-11.2,0-20.4,9.2-20.4,20.4v37.6H396.8z"/>
<g>
	<circle style="fill:#FFFFFF;" cx="357.2" cy="153.2" r="10.8"/>
	<circle style="fill:#FFFFFF;" cx="316.4" cy="153.2" r="10.8"/>
	<circle style="fill:#FFFFFF;" cx="276" cy="153.2" r="10.8"/>
</g>
<g>
	<polygon style="fill:#FF7058;" points="167.6,288.8 221.6,313.6 221.6,294 193.2,282.4 221.6,270.4 221.6,250.4 167.6,276.4 	"/>
	<polygon style="fill:#FF7058;" points="223.6,326.8 245.2,326.8 283.2,235.6 261.6,235.6 	"/>
	<polygon style="fill:#FF7058;" points="286.4,250 286.4,269.6 314.8,282 286.4,293.2 286.4,312.8 340.4,288.4 340.4,275.6 	"/>
</g>
<g>
</g>
<g>
</g>
<g>
</g>
<g>
</g>
<g>
</g>
<g>
</g>
<g>
</g>
<g>
</g>
<g>
</g>
<g>
</g>
<g>
</g>
<g>
</g>
<g>
</g>
<g>
</g>
<g>
</g>
</svg>
